HIERARCHY
ROOT Hips
{
	OFFSET -3.958830 18.904000 13.208200
	CHANNELS 6 Xposition Yposition Zposition Zrotation Yrotation Xrotation 
	JOINT LHipJoint
	{
		OFFSET 0.000000 0.000000 0.000000
		CHANNELS 3 Zrotation Yrotation Xrotation
		JOINT LeftUpLeg
		{
			OFFSET 1.800000 -1.400000 0.085000
			CHANNELS 3 Zrotation Yrotation Xrotation
			JOINT LeftLeg
			{
				OFFSET 2.215000 -6.000000 0.000000
				CHANNELS 3 Zrotation Yrotation Xrotation
				JOINT LeftFoot
				{
					OFFSET 2.500000 -6.900000 0.000000
					CHANNELS 3 Zrotation Yrotation Xrotation
					JOINT LeftToeBase
					{
						OFFSET 0.200000 -0.500000 1.950000
						CHANNELS 3 Zrotation Yrotation Xrotation
						End Site
						{
							OFFSET 0.000000 0.000000 0.000000
						}
					}
				}
			}
		}
	}
	JOINT RHipJoint
	{
		OFFSET 0.000000 0.000000 0.000000
		CHANNELS 3 Zrotation Yrotation Xrotation
		JOINT RightUpLeg
		{
			OFFSET -1.800000 -1.400000 0.085000
			CHANNELS 3 Zrotation Yrotation Xrotation
			JOINT RightLeg
			{
				OFFSET -2.215000 -6.000000 0.000000
				CHANNELS 3 Zrotation Yrotation Xrotation
				JOINT RightFoot
				{
					OFFSET -2.500000 -6.900000 0.000000
					CHANNELS 3 Zrotation Yrotation Xrotation
					JOINT RightToeBase
					{
						OFFSET -0.200000 -0.500000 1.950000
						CHANNELS 3 Zrotation Yrotation Xrotation
						End Site
						{
							OFFSET 0.000000 0.000000 0.000000
						}
					}
				}
			}
		}
	}
	JOINT LowerBack
	{
		OFFSET 0.000000 0.000000 0.000000
		CHANNELS 3 Zrotation Yrotation Xrotation
		JOINT Spine
		{
			OFFSET -0.087000 1.940000 -0.288900
			CHANNELS 3 Zrotation Yrotation Xrotation
			JOINT Spine1
			{
				OFFSET 0.000000 1.950000 0.060000
				CHANNELS 3 Zrotation Yrotation Xrotation
				JOINT Neck
				{
					OFFSET 0.000000 0.000000 0.000000
					CHANNELS 3 Zrotation Yrotation Xrotation
					JOINT Neck1
					{
						OFFSET 0.000000 1.600000 0.340000
						CHANNELS 3 Zrotation Yrotation Xrotation
						JOINT Head
						{
							OFFSET 0.000000 1.667000 -0.240000
							CHANNELS 3 Zrotation Yrotation Xrotation
							End Site
							{
								OFFSET 0.000000 0.000000 0.000000
							}
						}
					}
				}
				JOINT LeftShoulder
				{
					OFFSET 0.000000 0.000000 0.000000
					CHANNELS 3 Zrotation Yrotation Xrotation
					JOINT LeftArm
					{
						OFFSET 2.700000 1.550000 -0.730000
						CHANNELS 3 Zrotation Yrotation Xrotation
						JOINT LeftForeArm
						{
							OFFSET 5.450000 0.000000 0.000000
							CHANNELS 3 Zrotation Yrotation Xrotation
							JOINT LeftHand
							{
								OFFSET 3.450000 0.000000 0.000000
								CHANNELS 3 Zrotation Yrotation Xrotation
								JOINT LeftHandIndex1
								{
									OFFSET 0.750000 0.000000 0.000000
									CHANNELS 3 Zrotation Yrotation Xrotation
									End Site
									{
										OFFSET 0.000000 0.000000 0.000000
									}
								}
							}
						}
					}
				}
				JOINT RightShoulder
				{
					OFFSET 0.000000 0.000000 0.000000
					CHANNELS 3 Zrotation Yrotation Xrotation
					JOINT RightArm
					{
						OFFSET -2.700000 1.550000 -0.730000
						CHANNELS 3 Zrotation Yrotation Xrotation
						JOINT RightForeArm
						{
							OFFSET -5.450000 0.000000 0.000000
							CHANNELS 3 Zrotation Yrotation Xrotation
							JOINT RightHand
							{
								OFFSET -3.450000 0.000000 0.000000
								CHANNELS 3 Zrotation Yrotation Xrotation
								JOINT RightHandIndex1
								{
									OFFSET -0.750000 0.000000 0.000000
									CHANNELS 3 Zrotation Yrotation Xrotation
									End Site
									{
										OFFSET 0.000000 0.000000 0.000000
									}
								}
							}
						}
					}
				}
			}
		}
	}
}
MOTION
Frames: 9
Frame Time: 0.016667
1.467020 16.701870 -6.245830 2.852001 19.436701 -10.707810 -15.804903 13.462931 4.767836 -6.967003 -7.946835 4.595304 -32.621018 12.883915 20.726170 0.990313 8.494129 1.571931 0.547200 0.604090 0.460390 17.875698 -9.186077 2.433024 13.682739 -0.759512 -31.345908 -15.566985 -0.559336 28.077621 -0.386234 -2.933390 3.145356 0.378260 -0.159960 0.086180 -2.257970 -5.902795 -8.318010 -10.870391 -8.492140 54.656755 1.098573 -10.728930 20.526157 -3.334840 1.080690 -8.558085 -6.408420 5.472658 51.793594 2.821430 8.738170 -16.123120 -14.605589 -24.279191 -1.875410 1.329832 -34.712567 -11.520705 100.716908 -31.615626 -39.549006 -3.932310 2.578060 0.382630 -0.091950 0.276720 0.019790 22.742517 15.975728 9.751943 22.851555 -4.757720 -12.395720 -16.285254 41.639974 -6.229567 1.996454 -1.624756 -0.006370 0.184820 -0.119700 -0.185760 
1.542170 16.619090 -6.234450 3.923152 18.406657 -11.160302 -15.837021 13.361463 4.892165 -7.599707 -8.629542 5.596042 -35.319093 13.158150 20.059377 1.083752 8.766482 1.489421 0.533040 0.589970 0.455240 17.881329 -9.108357 2.381722 15.354392 -1.359495 -30.887786 -20.454185 0.509916 26.799795 -0.458173 -3.172409 3.066602 0.367420 -0.160250 0.083340 -2.195435 -5.992146 -8.372871 -12.799595 -7.712186 56.164363 1.254837 -10.494051 21.052978 -3.802891 0.861579 -8.838481 -7.000391 6.003755 50.989605 2.748890 9.068310 -16.791880 -13.949938 -24.754763 -2.130550 2.268124 -34.221726 -12.332115 100.457159 -31.095031 -38.820459 -3.962891 2.573967 0.394760 -0.096580 0.279170 0.010030 22.786152 16.439301 10.452776 23.253802 -7.118869 -13.245039 -18.931943 43.527976 -7.507454 1.988148 -1.645690 -0.013190 0.190220 -0.108880 -0.189310 
1.619770 16.556140 -6.221050 4.327556 17.681300 -11.660968 -15.835871 13.189691 4.983151 -7.281310 -9.780581 5.707156 -38.353257 13.670692 20.182549 1.181621 9.121215 1.376520 0.543340 0.598000 0.468420 17.911466 -9.053163 2.375585 16.723641 -1.661929 -30.609757 -23.560592 1.065171 26.043745 -0.535207 -3.402665 2.986374 0.367910 -0.168640 0.087580 -2.220488 -5.892554 -8.441422 -13.485758 -7.582975 57.454417 0.867399 -10.539967 21.059141 -3.849626 0.653301 -8.740361 -7.372978 6.314539 50.482401 2.620710 9.257460 -17.741900 -13.962944 -24.639365 -2.322582 2.381856 -33.639407 -12.664433 99.279070 -32.614758 -39.486806 -3.956980 2.545021 0.412130 -0.106950 0.292780 0.009040 22.927815 16.272490 10.553812 23.697026 -8.434765 -14.036766 -20.508622 46.262719 -8.645825 1.967885 -1.652264 -0.011630 0.195670 -0.111220 -0.193120 
1.685890 16.504480 -6.210910 4.732974 16.346416 -11.741824 -15.835848 12.984726 5.064752 -6.598072 -11.153220 4.273805 -41.668644 14.393030 20.891548 1.260052 9.474606 1.248539 0.563680 0.618360 0.492260 17.938231 -8.962676 2.415209 17.631265 -1.436463 -30.763270 -24.927680 1.413027 25.937547 -0.587112 -3.517889 2.936929 0.379760 -0.199100 0.084310 -2.235079 -5.763157 -8.532295 -14.102081 -7.207892 58.268084 0.415050 -10.320860 20.289328 -3.618348 0.184423 -8.352229 -8.230599 6.644887 50.139030 2.083720 9.311850 -19.205200 -14.415565 -23.281434 -2.422092 0.923464 -32.859351 -12.337809 97.161415 -36.198453 -41.605375 -3.897533 2.477621 0.439830 -0.131130 0.314970 0.001560 22.948454 15.469239 10.079857 24.471429 -8.982226 -15.059868 -21.302562 50.790586 -9.966181 1.925193 -1.631194 -0.011370 0.201080 -0.116560 -0.205910 
1.730840 16.462500 -6.202500 5.276488 14.994812 -11.341375 -15.846063 12.737044 5.186934 -4.896732 -12.977953 1.281028 -46.389644 15.721765 22.153759 1.383094 9.997763 1.066048 0.576050 0.627610 0.511070 17.953186 -8.830940 2.452936 17.851631 -0.882410 -31.169619 -25.864696 1.773700 25.777525 -0.614641 -3.574174 2.905891 0.388690 -0.222570 0.083020 -2.212298 -5.655083 -8.652196 -14.669986 -6.519661 58.306334 0.114564 -9.809138 18.898525 -3.256607 0.012805 -7.732569 -8.493171 6.786803 50.101322 1.736330 9.350830 -20.071650 -15.368514 -21.187918 -2.526874 -1.506295 -32.266294 -11.478833 93.937915 -40.404298 -43.221575 -3.820200 2.395171 0.458260 -0.147920 0.329300 -0.007220 23.158701 14.022084 9.199143 25.758581 -9.186380 -16.377014 -21.972353 57.380465 -11.995343 1.869229 -1.599197 -0.012850 0.201420 -0.118920 -0.217540 
1.762930 16.434950 -6.204970 5.938406 12.714339 -10.508789 -15.864254 12.449446 5.337339 -1.908260 -14.466638 -2.990649 -52.513647 17.507080 22.816961 1.533707 10.558019 0.880072 0.579800 0.625640 0.523950 17.957358 -8.630663 2.531199 17.454784 0.282868 -31.909062 -25.447645 2.087856 26.234218 -0.609725 -3.524011 2.920657 0.387370 -0.236640 0.077540 -2.160283 -5.543070 -8.802813 -15.486069 -5.189234 57.620995 -0.024128 -8.649928 17.095957 -2.817526 -0.221759 -7.185093 -8.864862 6.994359 50.433427 1.281970 9.385890 -20.480490 -16.558696 -18.660926 -2.631251 -4.541969 -31.182405 -10.327874 89.884551 -46.600733 -45.432708 -3.703877 2.230907 0.472960 -0.160770 0.338020 -0.011550 23.269862 12.670185 8.363712 27.159415 -9.039476 -17.498949 -21.159100 65.138476 -14.015085 1.810543 -1.556649 -0.016480 0.207420 -0.120210 -0.225970 
1.796570 16.433350 -6.208210 6.065489 9.972092 -9.757351 -15.887096 12.199249 5.469377 2.114771 -14.958495 -7.578052 -58.210805 19.734309 23.310084 1.686716 11.054331 0.712112 0.595590 0.638230 0.545110 17.950189 -8.373753 2.674465 17.241042 1.740325 -32.247014 -24.419081 2.274539 26.496819 -0.601565 -3.375923 2.968189 0.381960 -0.270910 0.075000 -2.092660 -5.488485 -8.957675 -15.784614 -3.727139 56.749109 0.430288 -7.025237 15.029804 -2.268495 -0.820647 -6.859869 -9.996996 7.173518 51.002353 0.564770 8.921610 -21.221550 -18.068074 -16.337990 -2.701719 -8.634862 -29.083745 -9.680948 82.664631 -55.221528 -46.150089 -3.491939 1.934471 0.491200 -0.191940 0.364710 -0.012500 23.356613 12.114619 7.888929 27.624137 -8.984655 -18.251693 -19.628118 72.774703 -15.999942 1.791805 -1.524002 -0.001760 0.206030 -0.132770 -0.227530 
1.832930 16.450470 -6.209850 6.088141 7.944160 -8.681797 -15.913842 12.019207 5.591798 5.834016 -14.893095 -12.503025 -61.605170 22.558270 25.033969 1.797580 11.553478 0.539945 0.604670 0.642070 0.548990 17.935930 -8.136341 2.799385 16.527240 3.109988 -33.133112 -23.074913 2.324801 26.675307 -0.565549 -3.187088 3.024802 0.383080 -0.292880 0.072740 -2.018635 -5.515387 -9.076354 -15.820295 -2.898028 55.310292 1.114563 -6.100003 12.617955 -1.972665 -1.802123 -6.326031 -11.942291 7.840485 51.294564 -0.032470 8.065950 -21.690020 -18.972302 -13.346698 -3.223038 -13.419132 -25.920633 -10.124024 68.417716 -66.675222 -42.499093 -3.192624 1.659598 0.507020 -0.215050 0.375750 -0.016970 23.526622 10.908625 7.098834 27.864640 -7.249860 -17.831145 -13.332973 80.389528 -14.792282 1.817077 -1.594637 0.003820 0.206190 -0.131490 -0.227340 
1.873740 16.492610 -6.218640 5.983805 6.371679 -7.759548 -15.946314 11.960171 5.700047 8.415290 -14.612868 -17.396257 -61.024430 25.973714 29.021127 1.895814 12.112900 0.353891 0.613680 0.645410 0.554130 17.906144 -7.992403 2.854729 14.858175 4.111094 -33.827021 -20.598975 2.015043 26.741801 -0.502907 -2.891594 3.116290 0.383500 -0.318420 0.073880 -1.928244 -5.587905 -9.137239 -15.819727 -1.950111 54.044261 2.438038 -5.217622 10.702464 -1.718436 -2.306654 -6.242325 -12.629592 8.211016 51.180164 -0.536870 7.273790 -22.101640 -19.414547 -11.032474 -3.157148 -16.346636 -22.257175 -10.048782 33.448930 -73.381229 -23.728567 -3.261094 2.599287 0.518820 -0.236960 0.387840 -0.021010 23.382377 10.112886 6.487981 27.847249 -4.941782 -16.502658 1.229658 87.051902 -5.474203 1.887670 -1.785169 0.012640 0.198370 -0.133530 -0.227760 
